<?xml version="1.0" encoding="UTF-8"?>
<svg id="Layer_1" data-name="Layer 1" xmlns="http://www.w3.org/2000/svg" viewBox="0 0 121.98 116.41">
  <defs>
    <style>
      .cls-2 {
        fill: #000;
      }
    </style>
  </defs>
  <path class="cls-2" d="m12.52,2.39v5.81h-3.88V3.3H3.88v4.7l7.79,7.34c.56.53.85,1.23.85,2.11v6.19c0,1.58-.79,2.37-2.36,2.37H2.34c-1.56,0-2.34-.79-2.34-2.37v-6.19h3.88v5.3h4.75v-5.1L.85,10.28c-.56-.54-.85-1.23-.85-2.08V2.42C0,.83.78.03,2.34.03h7.82c1.57,0,2.36.79,2.36,2.36Zm13.49,8.35h-5.26V.03h-3.88v25.98h3.88v-11.65h5.26v11.65h3.92V.03h-3.92v10.71ZM42.44,0l5,26.01h-3.85l-.78-4.93h-4.86l-.78,4.93h-3.83v-.07L38.36,0h4.08Zm-.18,17.75l-1.89-11.72-1.91,11.72h3.8ZM62.46,1.35c.91.88,1.36,2.08,1.36,3.61v16.15c0,1.53-.45,2.73-1.36,3.59-.91.87-2.13,1.3-3.67,1.3h-7.92V.03h7.92c1.54,0,2.76.44,3.67,1.32Zm-2.54,4.19c0-1.45-.76-2.17-2.27-2.17h-2.89v19.31h2.79c1.58,0,2.37-.74,2.37-2.21V5.54Zm14.16,5.78L70.97.03h-4c-.01.09-.01.14,0,.15l3.42,10.86c.04.14.36,1.04.95,2.69.33.96.59,1.88.76,2.74v9.55h3.9v-9.55c.72-2.55,1.29-4.35,1.71-5.43L81.15.18V.03h-3.98l-3.09,11.29Zm10.02,14.69h3.74v-4.02h-3.74v4.02ZM102.39.03h-8.12c-1.57,0-2.36.8-2.36,2.39v21.22c0,1.58.77,2.37,2.31,2.37h8.17c1.58,0,2.37-.79,2.37-2.37v-11.54h-6.79v3.3h2.89v7.27h-5.06V3.37h5.06v4.6h3.9V2.42c0-1.59-.79-2.39-2.37-2.39Zm19.59,7.94V2.42c0-1.59-.79-2.39-2.37-2.39h-8.12c-1.57,0-2.36.8-2.36,2.39v21.22c0,1.58.77,2.37,2.31,2.37h8.17c1.58,0,2.37-.79,2.37-2.37v-11.54h-6.79v3.3h2.89v7.27h-5.06V3.37h5.06v4.6h3.9Z"/>
</svg>